<svg xmlns="http://www.w3.org/2000/svg" width="16px" height="16px" viewBox="0 0 32 32">
  <g fill="none">
    <path fill="#9b9b9b"
      d="M 16 1.5 c -5.3 0 -9.8 3.8 -10.5 8.9 l 0 0 L 5.3 12.5 H 2.7 c -1.1 0 -1.6 1.3 -0.9 2.1 L 4.7 17.4 L 3.6 27.5 c -0.2 1.4 0.7 2.8 2.2 3 a 4 4 0 0 0 3.3 -1.1 a 3 3 0 0 1 4.2 0 c 1.5 1.5 4 1.5 5.6 0 a 3 3 0 0 1 4.2 0 a 4 4 0 0 0 3 1.1 h 0 c 1.6 -0.1 2.8 -1.5 2.5 -3 l -1.1 -10.1 l 2.8 -2.8 c 0.8 -0.8 0.2 -2.1 -0.9 -2.1 h -2.5 l -0.2 -2.1 l 0 0 C 25.8 5.3 21.3 1.5 16 1.5" />
    <path fill="#ffffff"
      d="M 6.2 13.5 l 0.3 -3 c 0.7 -4.6 4.7 -8 9.5 -8 s 8.9 3.4 9.5 8 l 0.3 3 h 3.4 c 0.2 0 0.3 0.2 0.2 0.4 L 26.3 17 l 1.2 10.6 l 0 0 c 0.1 1 -0.6 1.9 -1.6 1.9 a 3 3 0 0 1 -2.2 -0.8 c -1.5 -1.5 -4 -1.5 -5.6 0 a 3 3 0 0 1 -4.2 0 c -1.5 -1.5 -4 -1.5 -5.6 0 a 3 3 0 0 1 -2.5 0.8 c -0.9 -0.1 -1.5 -1 -1.3 -1.9 l 0 0 L 5.8 17 l -3.2 -3.2 c -0.1 -0.1 0 -0.4 0.2 -0.4 z" />
    <path fill="#89029c" d="M 21 12 H 11 s 0 5 5 5 s 5 -5 5 -5" />
    <path fill="#f70a8d"
      d="M 19.6 16.1 l 0.2 -0.9 a 1.3 1.3 0 0 0 -0.9 -1.5 a 11.7 11.7 0 0 0 -5.7 0 a 1.3 1.3 0 0 0 -0.9 1.5 l 0.2 0.9 a 3.7 3.7 0 0 0 7.2 0" />
    <path fill="#321b41"
      d="M 11.7 7.1 a 0.5 0.5 0 1 0 -0.4 0.9 l 1.1 0.6 l -1.1 0.6 a 0.5 0.5 0 1 0 0.4 0.9 l 2 -1 a 0.5 0.5 0 0 0 0 -0.9 z M 21 8.5 a 1.5 1.5 0 1 1 -3 0 a 1.5 1.5 0 0 1 3 0" />
  </g>
</svg>
